<svg width="165" height="33" viewBox="0 0 165 33" fill="none" xmlns="http://www.w3.org/2000/svg">
<path d="M1.3 27C0.966667 27 0.8 26.8333 0.8 26.5V22.74C0.8 22.5667 0.806667 22.4267 0.82 22.32C0.846667 22.2133 0.926667 22.1267 1.06 22.06L6.3 19.66V16.1L1.14 12.9C0.913333 12.7667 0.8 12.5667 0.8 12.3V4.96C0.8 4.74667 0.813333 4.59333 0.84 4.5C0.866667 4.39333 0.966667 4.28 1.14 4.16L6.4 0.599999C6.53333 0.519998 6.65333 0.459998 6.76 0.419998C6.88 0.366665 7.02667 0.339999 7.2 0.339999H12.6C12.9333 0.339999 13.1 0.506665 13.1 0.839998V4.24C13.1 4.53333 13 4.73333 12.8 4.84L7.56 7V10.7L12.8 13.7C13 13.7933 13.1 14.0067 13.1 14.34V23.04C13.1 23.1467 13.08 23.26 13.04 23.38C13.0133 23.5 12.9467 23.5867 12.84 23.64L6.56 26.76C6.48 26.8 6.38 26.8533 6.26 26.92C6.15333 26.9733 6.04667 27 5.94 27H1.3ZM20.1984 27C19.8651 27 19.6984 26.8333 19.6984 26.5V5.5C19.6984 5.16667 19.8651 5 20.1984 5H30.8984C31.2051 5 31.4718 5.11333 31.6984 5.34L35.6984 9.34C35.9251 9.55333 36.0384 9.82 36.0384 10.14V26.5C36.0384 26.8333 35.8718 27 35.5384 27H30.1984C29.8651 27 29.6984 26.8333 29.6984 26.5V10.94C29.6984 10.3133 29.3851 10 28.7584 10H26.0384V26.5C26.0384 26.8333 25.8718 27 25.5384 27H20.1984ZM48.1141 27C47.8074 27 47.5407 26.8867 47.3141 26.66L43.3141 22.66C43.0874 22.4467 42.9741 22.18 42.9741 21.86V10.14C42.9741 9.82 43.0874 9.55333 43.3141 9.34L47.3141 5.34C47.5407 5.11333 47.8074 5 48.1141 5H58.8141C59.1474 5 59.3141 5.16667 59.3141 5.5V26.5C59.3141 26.8333 59.1474 27 58.8141 27H54.6541C54.4807 27 54.3474 26.9667 54.2541 26.9C54.1741 26.8333 54.0807 26.7533 53.9741 26.66L52.9741 25.66L51.9741 26.66C51.7607 26.8867 51.4941 27 51.1741 27H48.1141ZM50.4541 22.34H51.8541C52.2807 22.34 52.5741 22.2533 52.7341 22.08C52.8941 21.9067 52.9741 21.6 52.9741 21.16V9.66H50.4541C50.0141 9.66 49.7141 9.74667 49.5541 9.92C49.3941 10.0933 49.3141 10.4 49.3141 10.84V21.16C49.3141 21.6 49.3941 21.9067 49.5541 22.08C49.7141 22.2533 50.0141 22.34 50.4541 22.34ZM66.8734 33C66.5401 33 66.3734 32.8333 66.3734 32.5V5.5C66.3734 5.16667 66.5401 5 66.8734 5H71.0134C71.2534 5 71.4868 5.11333 71.7134 5.34L72.7134 6.34L73.7134 5.34C73.9268 5.11333 74.1934 5 74.5134 5H77.5734C77.8801 5 78.1468 5.11333 78.3734 5.34L82.3734 9.34C82.6001 9.55333 82.7134 9.82 82.7134 10.14V21.86C82.7134 22.18 82.6001 22.4467 82.3734 22.66L78.3734 26.66C78.1468 26.8867 77.8801 27 77.5734 27H74.5134C74.1934 27 73.9268 26.8867 73.7134 26.66L72.7134 25.66V32.5C72.7134 32.8333 72.5468 33 72.2134 33H66.8734ZM72.7134 22.34H75.2334C75.6734 22.34 75.9734 22.2533 76.1334 22.08C76.2934 21.9067 76.3734 21.6 76.3734 21.16V10.84C76.3734 10.4 76.2934 10.0933 76.1334 9.92C75.9734 9.74667 75.6734 9.66 75.2334 9.66H73.8334C73.4068 9.66 73.1134 9.74667 72.9534 9.92C72.7934 10.0933 72.7134 10.4 72.7134 10.84V22.34ZM90.3891 27C90.0557 27 89.8891 26.8333 89.8891 26.5V0.839998C89.8891 0.506665 90.0557 0.339999 90.3891 0.339999H102.429C102.736 0.339999 103.002 0.446666 103.229 0.659999L107.229 4.66C107.442 4.88667 107.549 5.15333 107.549 5.46V9.66C107.549 9.79333 107.522 9.9 107.469 9.98C107.416 10.06 107.336 10.1533 107.229 10.26L104.089 13.06L103.789 13.8L104.089 14.34L107.229 17.14C107.336 17.2467 107.416 17.34 107.469 17.42C107.522 17.4867 107.549 17.5933 107.549 17.74V21.86C107.549 22.18 107.442 22.4467 107.229 22.66L103.229 26.66C103.002 26.8867 102.736 27 102.429 27H90.3891ZM98.3491 22.5C99.4557 22.5 100.209 22.28 100.609 21.84C101.022 21.4 101.229 20.5667 101.229 19.34C101.229 18.1 101.022 17.26 100.609 16.82C100.209 16.38 99.4557 16.16 98.3491 16.16C97.2557 16.16 96.5024 16.38 96.0891 16.82C95.6891 17.26 95.4891 18.1 95.4891 19.34C95.4891 20.5667 95.6891 21.4 96.0891 21.84C96.5024 22.28 97.2557 22.5 98.3491 22.5ZM98.3491 11.16C99.4557 11.16 100.209 10.94 100.609 10.5C101.022 10.06 101.229 9.22667 101.229 8C101.229 6.77333 101.022 5.94 100.609 5.5C100.209 5.06 99.4557 4.84 98.3491 4.84C97.2557 4.84 96.5024 5.06 96.0891 5.5C95.6891 5.94 95.4891 6.77333 95.4891 8C95.4891 9.22667 95.6891 10.06 96.0891 10.5C96.5024 10.94 97.2557 11.16 98.3491 11.16ZM119.845 27C119.539 27 119.272 26.8867 119.045 26.66L115.045 22.66C114.819 22.4467 114.705 22.18 114.705 21.86V10.14C114.705 9.82 114.819 9.55333 115.045 9.34L119.045 5.34C119.272 5.11333 119.539 5 119.845 5H130.545C130.879 5 131.045 5.16667 131.045 5.5V26.5C131.045 26.8333 130.879 27 130.545 27H126.385C126.212 27 126.079 26.9667 125.985 26.9C125.905 26.8333 125.812 26.7533 125.705 26.66L124.705 25.66L123.705 26.66C123.492 26.8867 123.225 27 122.905 27H119.845ZM122.185 22.34H123.585C124.012 22.34 124.305 22.2533 124.465 22.08C124.625 21.9067 124.705 21.6 124.705 21.16V9.66H122.185C121.745 9.66 121.445 9.74667 121.285 9.92C121.125 10.0933 121.045 10.4 121.045 10.84V21.16C121.045 21.6 121.125 21.9067 121.285 22.08C121.445 22.2533 121.745 22.34 122.185 22.34ZM138.605 27C138.271 27 138.105 26.8333 138.105 26.5V5.5C138.105 5.16667 138.271 5 138.605 5H147.705C148.011 5 148.278 5.11333 148.505 5.34L150.965 7.8H151.705L154.165 5.34C154.391 5.11333 154.658 5 154.965 5H159.305C159.611 5 159.878 5.11333 160.105 5.34L164.105 9.34C164.331 9.55333 164.445 9.82 164.445 10.14V26.5C164.445 26.8333 164.278 27 163.945 27H158.605C158.271 27 158.105 26.8333 158.105 26.5V10.84C158.105 10.28 157.825 10 157.265 10H154.445V26.5C154.445 26.8333 154.278 27 153.945 27H148.605C148.271 27 148.105 26.8333 148.105 26.5V10.84C148.105 10.28 147.825 10 147.265 10H144.445V26.5C144.445 26.8333 144.278 27 143.945 27H138.605Z" fill="white" style="fill:white;fill-opacity:1;"/>
</svg>
